<?xml version="1.0" encoding="UTF-8"?>
<svg version="1.1" xmlns="http://www.w3.org/2000/svg" width="512" height="512">
<path d="M0 0 C2.11304462 3.41756091 2.57304755 5.98866714 2 10 C-0.00390625 12.69921875 -0.00390625 12.69921875 -3 15 C-6.04110959 15.23768191 -8.39810057 15.21078566 -11.375 14.875 C-12.17808594 14.80804932 -12.98117187 14.74109863 -13.80859375 14.67211914 C-16.20835119 14.47031703 -18.60354075 14.23738995 -21 14 C-51.38992331 11.39609117 -82.98797105 11.40156796 -111 25 C-111.58201172 25.28214355 -112.16402344 25.56428711 -112.76367188 25.85498047 C-121.91409132 30.3516356 -130.07716779 35.53529521 -138 42 C-138.56605957 42.45922852 -139.13211914 42.91845703 -139.71533203 43.39160156 C-180.22189783 76.45592909 -198.17141831 126.2001473 -203.58984375 177.07421875 C-204.25495538 185.05414162 -204.24418716 193.05989928 -204.25 201.0625 C-204.25067474 201.9008136 -204.25134949 202.7391272 -204.25204468 203.60284424 C-204.20235364 242.67485972 -196.34712775 282.86512392 -180.0625 318.5625 C-177.739437 324.04492867 -176.67490019 329.10654909 -178 335 C-180.39658538 339.28457065 -183.44911181 342.13787749 -188 344 C-192.02879568 344.31974569 -194.83842791 344.41484718 -198.625 343.0625 C-220.70643168 323.88651986 -229.2634597 276.28314042 -234 249 C-234.17499023 248.05576172 -234.34998047 247.11152344 -234.53027344 246.13867188 C-239.87771567 216.34124128 -239.85965298 181.70891442 -234 152 C-233.80132324 150.9476416 -233.60264648 149.8952832 -233.39794922 148.81103516 C-224.88325381 104.59202148 -207.06300818 65.68240671 -176 33 C-175.42121094 32.36835938 -174.84242188 31.73671875 -174.24609375 31.0859375 C-151.92512145 7.47829261 -118.8065491 -8.14118521 -87 -13 C-85.83726562 -13.18304688 -84.67453125 -13.36609375 -83.4765625 -13.5546875 C-58.82917318 -16.50848299 -20.86345391 -15.81740925 0 0 Z " fill="#000000" transform="translate(329,107)"/>
<path d="M0 0 C17.76896157 0.51225835 36.45194074 10.16898137 51.8125 18.375 C52.47781738 18.72965332 53.14313477 19.08430664 53.82861328 19.44970703 C63.1477833 24.45974692 72.02681782 29.97130402 80.74658203 35.95800781 C83.02237453 37.51895081 85.30577928 39.06837599 87.58984375 40.6171875 C115.0272589 59.25499119 115.0272589 59.25499119 116.29736328 64.30151367 C116.70811447 68.1040739 116.40535552 70.49328902 114.24511719 73.70605469 C111.99722817 76.1905636 109.64733922 78.47517234 107.1875 80.75 C106.3217334 81.58072021 105.4559668 82.41144043 104.56396484 83.26733398 C98.15899579 89.33317466 91.51697506 94.95878785 84.41259766 100.18066406 C82.82587646 101.36501562 81.27773089 102.60048104 79.73046875 103.8359375 C52.88919882 125.24142824 52.88919882 125.24142824 41.25 126.875 C37.8125 126.375 37.8125 126.375 34.875 124.4375 C32.46702164 120.86201698 32.07010363 118.80657381 32.3359375 114.57421875 C33.12174767 110.94789805 35.15679772 108.78213901 37.8125 106.375 C38.33585937 105.88 38.85921875 105.385 39.3984375 104.875 C41.48768209 102.97734553 43.63778885 101.17441431 45.8125 99.375 C46.58231201 98.73667236 46.58231201 98.73667236 47.36767578 98.08544922 C56.55522749 90.50354035 66.08590383 83.53362892 75.86474609 76.73828125 C80.22863494 73.68388725 84.51930902 70.52766724 88.8125 67.375 C85.02214075 63.16234529 80.44257397 60.14358277 75.8125 56.9375 C74.93110352 56.32495361 74.04970703 55.71240723 73.14160156 55.08129883 C59.36330358 45.55705646 45.44266066 36.35971098 30.69628906 28.39697266 C28.81728283 27.37759473 26.95115971 26.33731676 25.0859375 25.29296875 C17.70785379 21.20910495 10.27318177 17.74081676 2.35766602 14.80810547 C-1.526428 13.31447093 -4.26538687 12.18931011 -6.1875 8.375 C-5.88526557 3.33775947 -5.41709607 0.63730542 0 0 Z " fill="#000000" transform="translate(304.1875,60.625)"/>
</svg>
